<?xml version="1.0" ?><svg enable-background="new 0 0 100 100" id="Livello_1" version="1.1" viewBox="0 0 100 100" xml:space="preserve" xmlns="http://www.w3.org/2000/svg" xmlns:xlink="http://www.w3.org/1999/xlink"><path d="M21.858,84.642h56.283c3.584,0,6.5-2.916,6.5-6.5V21.858c0-3.584-2.916-6.5-6.5-6.5H21.858c-3.584,0-6.5,2.916-6.5,6.5  v56.284C15.358,81.726,18.274,84.642,21.858,84.642z M16.358,21.858c0-3.033,2.468-5.5,5.5-5.5h56.283c3.032,0,5.5,2.467,5.5,5.5  v56.284c0,3.033-2.468,5.5-5.5,5.5H21.858c-3.032,0-5.5-2.467-5.5-5.5V21.858z"/><path d="M43.138,58.98c0.512-0.337,0.92-0.792,1.213-1.351c0.294-0.555,0.443-1.271,0.443-2.129c0-1.655-0.492-2.874-1.466-3.625  c-0.928-0.704-2.159-1.061-3.659-1.061H32.67c-0.276,0-0.5,0.224-0.5,0.5v8.052c0,0.276,0.224,0.5,0.5,0.5h6.87  c0.701,0,1.328-0.064,1.913-0.195C42.11,59.527,42.68,59.293,43.138,58.98z M39.54,58.866h-6.37v-7.052h6.499  c1.276,0,2.305,0.289,3.052,0.855c0.723,0.557,1.073,1.483,1.073,2.831c0,0.693-0.11,1.252-0.327,1.663  c-0.215,0.409-0.511,0.739-0.887,0.987c-0.363,0.248-0.802,0.426-1.344,0.545C40.722,58.81,40.167,58.866,39.54,58.866z"/><path d="M26.23,64.847h14.174c1.349,0,2.678-0.171,3.948-0.509c1.311-0.344,2.483-0.88,3.488-1.592  c1.035-0.732,1.865-1.682,2.467-2.823c0.603-1.142,0.908-2.51,0.908-4.066c0-1.928-0.474-3.602-1.409-4.976  c-0.761-1.114-1.835-1.965-3.204-2.541c0.906-0.567,1.634-1.247,2.172-2.031c0.723-1.063,1.089-2.397,1.089-3.966  c0-1.438-0.242-2.665-0.721-3.65c-0.489-1.001-1.188-1.817-2.078-2.426c-0.888-0.597-1.94-1.028-3.127-1.28  c-1.187-0.257-2.469-0.382-3.921-0.382H26.23c-0.276,0-0.5,0.224-0.5,0.5v29.241C25.73,64.623,25.954,64.847,26.23,64.847z   M26.73,35.605h13.286c1.38,0,2.594,0.118,3.712,0.36c1.062,0.226,1.996,0.606,2.774,1.13c0.743,0.508,1.329,1.193,1.74,2.036  c0.412,0.847,0.62,1.928,0.62,3.212c0,1.365-0.308,2.51-0.914,3.401c-0.624,0.909-1.562,1.664-2.786,2.243  c-0.188,0.089-0.302,0.285-0.284,0.493c0.017,0.208,0.16,0.383,0.36,0.44c1.666,0.479,2.925,1.328,3.741,2.524  c0.831,1.222,1.235,2.665,1.235,4.413c0,1.392-0.267,2.603-0.793,3.6c-0.527,1-1.254,1.833-2.16,2.474  c-0.906,0.642-1.971,1.127-3.165,1.441c-1.188,0.315-2.432,0.476-3.693,0.476H26.73V35.605z"/><path d="M32.67,47.419h6.515c1.247,0,2.3-0.309,3.128-0.916c0.865-0.632,1.305-1.663,1.305-3.063c0-0.767-0.142-1.413-0.425-1.926  c-0.295-0.52-0.691-0.924-1.168-1.198c-0.475-0.287-0.995-0.477-1.58-0.577c-0.528-0.103-1.102-0.153-1.751-0.153H32.67  c-0.276,0-0.5,0.224-0.5,0.5v6.833C32.17,47.196,32.394,47.419,32.67,47.419z M33.17,40.586h5.523c0.585,0,1.095,0.044,1.57,0.137  c0.471,0.081,0.877,0.228,1.253,0.455c0.334,0.192,0.598,0.463,0.804,0.825c0.197,0.358,0.297,0.842,0.297,1.438  c0,1.079-0.293,1.816-0.896,2.256c-0.653,0.48-1.508,0.723-2.537,0.723H33.17V40.586z"/><path d="M58.454,51.995h9.462c0.141,0,0.274-0.059,0.37-0.163c0.095-0.104,0.141-0.243,0.128-0.383  c-0.14-1.488-0.633-2.712-1.468-3.638c0,0,0,0,0,0c-0.782-0.867-2.082-1.344-3.66-1.344c-1.021,0-1.854,0.174-2.546,0.532  c-0.659,0.344-1.207,0.779-1.632,1.297c-0.416,0.521-0.701,1.067-0.869,1.665c-0.159,0.548-0.254,1.053-0.284,1.501  c-0.009,0.138,0.039,0.274,0.134,0.375S58.315,51.995,58.454,51.995z M59.201,50.235c0.132-0.471,0.357-0.901,0.685-1.31  c0.335-0.408,0.778-0.758,1.315-1.04c0.538-0.278,1.239-0.419,2.085-0.419c1.292,0,2.327,0.36,2.918,1.013  c0.585,0.65,0.969,1.495,1.143,2.516h-8.326C59.062,50.758,59.123,50.504,59.201,50.235z"/><path d="M55.165,62.163c1.008,1.047,2.184,1.831,3.596,2.395c1.407,0.555,2.988,0.836,4.699,0.836c2.493,0,4.648-0.582,6.401-1.728  c1.784-1.146,3.124-3.075,3.981-5.73c0.05-0.152,0.022-0.319-0.071-0.448c-0.094-0.129-0.244-0.206-0.404-0.206h-5.122  c-0.221,0-0.415,0.144-0.479,0.355c-0.168,0.554-0.626,1.097-1.36,1.611c-0.762,0.53-1.688,0.798-2.752,0.798  c-1.492,0-2.64-0.382-3.411-1.136c0,0-0.001,0-0.001-0.001c-0.696-0.677-1.173-1.917-1.27-3.25h14.76  c0.264,0,0.481-0.204,0.499-0.467c0.112-1.689-0.028-3.327-0.419-4.871c-0.401-1.576-1.056-2.986-1.942-4.191  c-0.911-1.24-2.08-2.233-3.474-2.953c-1.402-0.732-3.063-1.104-4.937-1.104c-1.673,0-3.226,0.304-4.613,0.903  c-1.377,0.597-2.586,1.428-3.592,2.472c-0.985,1.019-1.768,2.27-2.326,3.719c-0.54,1.429-0.813,2.979-0.813,4.606  c0,1.691,0.266,3.268,0.791,4.688C53.433,59.877,54.191,61.12,55.165,62.163z M53.863,49.525c0.516-1.339,1.206-2.445,2.111-3.38  c0.914-0.949,2.014-1.706,3.269-2.249c1.279-0.552,2.659-0.821,4.217-0.821c1.71,0,3.216,0.333,4.476,0.991  c1.257,0.649,2.31,1.543,3.129,2.658c0.811,1.102,1.409,2.396,1.779,3.845c0.328,1.298,0.467,2.673,0.414,4.091H58.454  c-0.276,0-0.5,0.224-0.5,0.5c0,1.8,0.609,3.512,1.59,4.466c0.966,0.943,2.349,1.421,4.11,1.421c1.272,0,2.391-0.329,3.324-0.978  c0.781-0.547,1.321-1.147,1.611-1.787h4.075c-0.786,2.114-1.884,3.604-3.348,4.545c-1.591,1.04-3.562,1.566-5.857,1.566  c-1.585,0-3.042-0.258-4.33-0.766c-1.275-0.51-2.337-1.216-3.239-2.153c-0.891-0.954-1.561-2.053-2.047-3.36  c-0.483-1.307-0.729-2.767-0.729-4.34C53.115,52.269,53.367,50.838,53.863,49.525z"/><path d="M57.265,40.452h11.853c0.276,0,0.5-0.224,0.5-0.5v-2.885c0-0.276-0.224-0.5-0.5-0.5H57.265c-0.276,0-0.5,0.224-0.5,0.5  v2.885C56.765,40.229,56.988,40.452,57.265,40.452z M57.765,37.567h10.853v1.885H57.765V37.567z"/></svg>